HIERARCHY
ROOT Hips
{
	OFFSET 53.346500 6.115134 96.202400
	CHANNELS 6 Xposition Yposition Zposition Xrotation Yrotation Zrotation
	JOINT spine
	{
		OFFSET 0.000000 -0.458068 7.965683
		CHANNELS 3 Xrotation Yrotation Zrotation
		JOINT spine1
		{
			OFFSET 0.000000 -0.000001 10.243103
			CHANNELS 3 Xrotation Yrotation Zrotation
			JOINT spine2
			{
				OFFSET 0.000000 -0.000001 9.814751
				CHANNELS 3 Xrotation Yrotation Zrotation
				JOINT Neck
				{
					OFFSET 0.000000 -1.201385 25.198593
					CHANNELS 3 Xrotation Yrotation Zrotation
					JOINT Head
					{
						OFFSET 0.000000 -0.000001 7.613144
						CHANNELS 3 Xrotation Yrotation Zrotation
						End Site
						{
							OFFSET 0.000000 6.077328 18.428101
						}
					}
				}
				JOINT RightShoulder
				{
					OFFSET -4.132702 0.575449 10.599197
					CHANNELS 3 Xrotation Yrotation Zrotation
					JOINT RightArm
					{
						OFFSET 0.000000 -0.000002 13.901794
						CHANNELS 3 Xrotation Yrotation Zrotation
						JOINT RightArmRoll
						{
							OFFSET 0.000000 -0.000001 7.017883
							CHANNELS 3 Xrotation Yrotation Zrotation
							JOINT RightForeArm
							{
								OFFSET 0.000000 -0.000003 20.440598
								CHANNELS 3 Xrotation Yrotation Zrotation
								JOINT RightForeArmRoll
								{
									OFFSET 0.000000 -0.000001 7.875153
									CHANNELS 3 Xrotation Yrotation Zrotation
									JOINT RightHand
									{
										OFFSET 0.000000 -0.000002 15.803696
										CHANNELS 3 Xrotation Yrotation Zrotation
										End Site
										{
											OFFSET 0.000000 0.000000 0.100006
										}
									}
								}
							}
						}
					}
				}
				JOINT LeftShoulder
				{
					OFFSET 4.132702 0.575449 10.599197
					CHANNELS 3 Xrotation Yrotation Zrotation
					JOINT LeftArm
					{
						OFFSET 0.000000 -0.000002 13.901794
						CHANNELS 3 Xrotation Yrotation Zrotation
						JOINT LeftArmRoll
						{
							OFFSET 0.000000 -0.000001 7.017883
							CHANNELS 3 Xrotation Yrotation Zrotation
							JOINT LeftForeArm
							{
								OFFSET 0.000000 -0.000003 20.440598
								CHANNELS 3 Xrotation Yrotation Zrotation
								JOINT LeftForeArmRoll
								{
									OFFSET 0.000000 -0.000001 7.875153
									CHANNELS 3 Xrotation Yrotation Zrotation
									JOINT LeftHand
									{
										OFFSET 0.000000 -0.000002 15.803696
										CHANNELS 3 Xrotation Yrotation Zrotation
										End Site
										{
											OFFSET 0.000000 0.000000 0.100006
										}
									}
								}
							}
						}
					}
				}
			}
		}
	}
	JOINT RightUpLeg
	{
		OFFSET -7.060482 1.086101 -1.294701
		CHANNELS 3 Xrotation Yrotation Zrotation
		JOINT RightUpLegRoll
		{
			OFFSET 0.000000 -0.000003 18.530800
			CHANNELS 3 Xrotation Yrotation Zrotation
			JOINT RightLeg
			{
				OFFSET 0.000000 0.000004 -22.947601
				CHANNELS 3 Xrotation Yrotation Zrotation
				JOINT RightLegRoll
				{
					OFFSET 0.000000 -0.000004 23.022598
					CHANNELS 3 Xrotation Yrotation Zrotation
					JOINT RightFoot
					{
						OFFSET 0.000000 -0.000003 19.162498
						CHANNELS 3 Xrotation Yrotation Zrotation
						JOINT RightToeBase
						{
							OFFSET 0.000000 -0.000003 16.018799
							CHANNELS 3 Xrotation Yrotation Zrotation
							End Site
							{
								OFFSET 0.006790 0.894206 7.757812
							}
						}
					}
				}
			}
		}
	}
	JOINT LeftUpLeg
	{
		OFFSET 7.060482 1.086101 -1.294701
		CHANNELS 3 Xrotation Yrotation Zrotation
		JOINT LeftUpLegRoll
		{
			OFFSET 0.000000 -0.000003 18.530899
			CHANNELS 3 Xrotation Yrotation Zrotation
			JOINT LeftLeg
			{
				OFFSET 0.000000 -0.000004 22.947495
				CHANNELS 3 Xrotation Yrotation Zrotation
				JOINT LeftLegRoll
				{
					OFFSET 0.000000 -0.000004 23.235504
					CHANNELS 3 Xrotation Yrotation Zrotation
					JOINT LeftFoot
					{
						OFFSET 0.000000 -0.000003 18.949600
						CHANNELS 3 Xrotation Yrotation Zrotation
						JOINT LeftToeBase
						{
							OFFSET 0.000000 -0.000002 16.018799
							CHANNELS 3 Xrotation Yrotation Zrotation
							End Site
							{
								OFFSET -0.030430 0.894205 7.757812
							}
						}
					}
				}
			}
		}
	}
}
MOTION
Frames: 9
Frame Time: 0.041667
55.998497 -6.687948 96.902802 -4.664078 0.034123 0.242639 -0.236108 -0.180625 -0.252021 3.529815 -0.374913 -0.511065 5.174884 -0.380580 -0.506636 12.185471 7.130522 2.576059 7.846993 -1.241390 2.470672 -10.539399 -72.322203 -13.142250 -69.919158 -120.397247 -69.586411 -0.000001 -0.000023 0.000001 9.127604 -14.492505 0.581620 0.000002 0.000006 -3.006619 -5.000209 -7.998745 0.000154 -6.795225 65.960284 8.568584 -52.829194 115.852508 50.498662 -0.000003 0.000007 -0.000002 6.125434 10.863322 0.040263 -0.000001 -0.000010 3.000000 -5.000210 7.998745 -0.000139 3.009075 -175.090752 3.974875 -179.999991 0.000005 -1.296993 172.792120 -0.607158 -0.567789 0.000000 -0.000003 0.055829 68.250775 6.966576 1.969745 25.456897 -7.353079 -0.000002 1.639811 173.576608 -2.515272 -0.000020 -0.000005 -1.205520 -7.447876 1.850772 0.301238 0.000002 -0.000004 -0.112660 69.403799 -6.942372 -1.974501 25.456899 7.349907 0.000003 
55.997097 -6.678251 96.900986 -4.640239 0.031870 0.244461 -0.231585 -0.180624 -0.251893 3.538865 -0.375000 -0.510119 5.183924 -0.380669 -0.505685 12.121522 7.147990 2.584350 7.833965 -1.302723 2.484771 -10.513183 -72.283147 -13.111550 -69.781297 -120.374953 -69.435177 0.000000 -0.000023 0.000001 9.248443 -14.453170 0.588279 0.000001 0.000007 -3.006618 -5.000215 -7.998745 0.000154 -6.842030 65.990153 8.623871 -52.767169 115.747732 50.491306 -0.000002 0.000007 -0.000002 6.389094 10.913947 0.016281 0.000001 -0.000010 3.000000 -5.000211 7.998743 -0.000139 2.950743 -175.096476 3.953785 -179.999991 0.000006 -1.295996 172.738039 -0.591216 -0.569331 0.000001 -0.000003 0.056584 68.256041 6.966602 1.969616 25.456897 -7.353080 -0.000000 1.591175 173.583438 -2.499968 -0.000020 -0.000005 -1.205130 -7.481544 1.843978 0.302557 0.000002 -0.000004 -0.113213 69.406333 -6.942378 -1.974443 25.456906 7.349907 0.000002 
55.995296 -6.685090 96.896683 -4.616647 0.029791 0.246132 -0.226988 -0.180624 -0.251810 3.548056 -0.375128 -0.509238 5.193124 -0.380799 -0.504798 12.056955 7.165258 2.592760 7.820760 -1.363653 2.498800 -10.487226 -72.243587 -13.081084 -69.641982 -120.353671 -69.279715 -0.000001 -0.000023 0.000001 9.367075 -14.411605 0.594225 0.000002 0.000006 -3.006619 -5.000212 -7.998744 0.000154 -6.888474 66.020731 8.678800 -52.705889 115.640594 50.484698 -0.000003 0.000008 -0.000002 6.654250 10.965554 -0.008474 -0.000003 -0.000010 2.999999 -5.000209 7.998744 -0.000140 2.892827 -175.102213 3.932923 -179.999991 0.000005 -1.294998 172.684367 -0.576268 -0.570981 0.000000 -0.000003 0.057344 68.261525 6.966607 1.969671 25.456899 -7.353077 -0.000002 1.543043 173.590296 -2.484631 -0.000020 -0.000005 -1.204750 -7.514801 1.836966 0.303841 0.000002 -0.000004 -0.113775 69.409311 -6.942400 -1.974461 25.456899 7.349906 0.000003 
55.996696 -6.672596 96.897392 -4.593212 0.027834 0.247698 -0.222340 -0.180625 -0.251757 3.557356 -0.375285 -0.508402 5.202425 -0.380959 -0.503956 11.991777 7.182374 2.601278 7.807428 -1.424310 2.512782 -10.461467 -72.203706 -13.050824 -69.502666 -120.332866 -69.122484 -0.000000 -0.000022 0.000001 9.484145 -14.368684 0.599651 -0.000000 0.000007 -3.006619 -5.000211 -7.998741 0.000155 -6.934646 66.051618 8.733467 -52.644721 115.532240 50.478066 -0.000003 0.000007 -0.000002 6.920476 11.017843 -0.033923 -0.000001 -0.000010 3.000000 -5.000211 7.998744 -0.000139 2.835185 -175.108961 3.912177 -179.999991 0.000005 -1.294002 172.630900 -0.560335 -0.573470 0.000001 -0.000004 0.058108 68.267304 6.966564 1.969698 25.456899 -7.353078 -0.000002 1.495254 173.596156 -2.469301 -0.000020 -0.000004 -1.204370 -7.547789 1.829808 0.305097 0.000002 -0.000004 -0.114342 69.412692 -6.942404 -1.974349 25.456899 7.349907 0.000003 
55.995697 -6.675970 96.891182 -4.569869 0.025946 0.249206 -0.217660 -0.180625 -0.251723 3.566717 -0.375459 -0.507590 5.211785 -0.381136 -0.503139 11.926392 7.199394 2.609870 7.794022 -1.484812 2.526721 -10.435901 -72.163722 -13.020751 -69.363255 -120.312416 -68.964167 -0.000001 -0.000023 0.000001 9.600318 -14.324976 0.604692 0.000004 0.000007 -3.006619 -5.000215 -7.998746 0.000154 -6.980775 66.082797 8.788088 -52.583980 115.422820 50.471806 -0.000002 0.000008 -0.000002 7.187376 11.070617 -0.060001 -0.000001 -0.000010 2.999999 -5.000208 7.998744 -0.000140 2.777722 -175.114726 3.891597 -179.999991 0.000005 -1.293004 172.577638 -0.545394 -0.575045 0.000001 -0.000003 0.058875 68.273102 6.966591 1.969637 25.456897 -7.353080 -0.000001 1.447679 173.603027 -2.453948 -0.000020 -0.000005 -1.204000 -7.580606 1.822571 0.306336 0.000002 -0.000004 -0.114913 69.416285 -6.942382 -1.974320 25.456904 7.349906 0.000003 
55.993397 -6.666678 96.890594 -4.546550 0.024077 0.250701 -0.212975 -0.180625 -0.251693 3.576087 -0.375636 -0.506786 5.221156 -0.381315 -0.502328 11.860899 7.216386 2.618507 7.780607 -1.545280 2.540616 -10.410400 -72.123526 -12.990746 -69.222103 -120.292622 -68.803678 -0.000000 -0.000024 0.000001 9.716227 -14.281050 0.609494 0.000005 0.000006 -3.006619 -5.000215 -7.998744 0.000154 -7.026969 66.114066 8.842790 -52.522560 115.313250 50.464719 -0.000001 0.000007 -0.000002 7.454506 11.123484 -0.086613 -0.000003 -0.000010 3.000000 -5.000211 7.998745 -0.000140 2.720299 -175.120477 3.871043 -179.999991 0.000005 -1.291994 172.524349 -0.530456 -0.576605 0.000001 -0.000003 0.059641 68.278894 6.966580 1.969670 25.456897 -7.353077 -0.000003 1.400155 173.608888 -2.438628 -0.000019 -0.000005 -1.203620 -7.613382 1.815316 0.307564 0.000002 -0.000004 -0.115485 69.419987 -6.942364 -1.974285 25.456904 7.349906 0.000003 
55.996399 -6.649787 96.880203 -4.523179 0.022175 0.252226 -0.208302 -0.180624 -0.251656 3.585437 -0.375805 -0.505969 5.230506 -0.381487 -0.501505 11.795609 7.233413 2.627168 7.767240 -1.605829 2.554505 -10.385040 -72.083542 -12.960876 -69.082159 -120.272487 -68.645225 0.000001 -0.000023 0.000002 9.832522 -14.237563 0.614220 0.000002 0.000006 -3.006620 -5.000212 -7.998744 0.000154 -7.073371 66.145109 8.897699 -52.461256 115.203899 50.457647 -0.000002 0.000007 -0.000002 7.721457 11.176051 -0.113663 -0.000000 -0.000010 3.000000 -5.000208 7.998744 -0.000138 2.662783 -175.127225 3.850428 -179.999991 0.000005 -1.290996 172.471033 -0.514520 -0.578007 0.000001 -0.000004 0.060407 68.284680 6.966569 1.969703 25.456895 -7.353076 -0.000002 1.352521 173.615759 -2.423302 -0.000020 -0.000004 -1.203249 -7.646237 1.808100 0.308789 0.000001 -0.000004 -0.116055 69.423484 -6.942371 -1.974268 25.456906 7.349906 0.000003 
55.992195 -6.645180 96.879295 -4.499697 0.020188 0.253831 -0.203665 -0.180624 -0.251594 3.594707 -0.375953 -0.505120 5.239766 -0.381637 -0.500649 11.730615 7.250525 2.635838 7.753969 -1.666590 2.568376 -10.359730 -72.043743 -12.931065 -68.941792 -120.252365 -68.487714 -0.000004 -0.000023 0.000001 9.949868 -14.195187 0.619030 0.000003 0.000006 -3.006619 -5.000215 -7.998746 0.000154 -7.120125 66.175825 8.952988 -52.398954 115.095695 50.449389 -0.000001 0.000008 -0.000002 7.987812 11.228131 -0.141036 -0.000002 -0.000010 3.000000 -5.000212 7.998743 -0.000139 2.605063 -175.133003 3.829762 -179.999991 0.000005 -1.290000 172.417498 -0.499588 -0.579500 0.000001 -0.000003 0.061169 68.290280 6.966615 1.969658 25.456901 -7.353079 -0.000002 1.304651 173.621633 -2.408032 -0.000020 -0.000005 -1.202869 -7.679303 1.800982 0.310018 0.000001 -0.000005 -0.116621 69.426762 -6.942370 -1.974164 25.456901 7.349907 0.000002 
55.998600 -6.645256 96.879295 -4.476028 0.018066 0.255557 -0.199092 -0.180624 -0.251498 3.603857 -0.376067 -0.504220 5.248916 -0.381753 -0.499743 11.666128 7.267788 2.644486 7.740875 -1.727681 2.582259 -10.334447 -72.004366 -12.901289 -68.800967 -120.232175 -68.331856 -0.000001 -0.000023 0.000001 10.068922 -14.154585 0.624090 0.000005 0.000006 -3.006620 -5.000211 -7.998744 0.000154 -7.167347 66.206014 9.008750 -52.336294 114.988926 50.440636 -0.000001 0.000007 -0.000002 8.253131 11.279438 -0.168652 -0.000002 -0.000010 3.000000 -5.000213 7.998743 -0.000139 2.547011 -175.138782 3.808942 -179.999991 0.000005 -1.289003 172.363690 -0.483670 -0.581846 0.000000 -0.000003 0.061929 68.295745 6.966580 1.969707 25.456895 -7.353077 -0.000002 1.256364 173.628518 -2.392786 -0.000020 -0.000004 -1.202490 -7.712691 1.794032 0.311263 0.000002 -0.000004 -0.117180 69.429624 -6.942385 -1.974086 25.456904 7.349907 0.000002 
